# xmcd
#
# Track frame offsets: 
#        150
#        16955
#        31467
#        56830
#        92317
#        106212
#        123642
#        135130
#        157517
#        172225
#        190605
#
# Disc length: 2703 seconds
#
# Revision: 4
# Processed by: cddbd v1.5.2PL0 Copyright (c) Steve Scherf et al.
# Submitted via: ExactAudioCopyFreeDBPlugin 1.0
#
DISCID=7e0a8d0b
DTITLE=Various Artist - Playin' The Blues
DYEAR=1900
DGENRE=Blues
TTITLE0=Albert Collins - The Things I Used To Do
TTITLE1=Matt Guitar Murphy - Groovin' On Bounce
TTITLE2=Eddie Clearwater - Mayor Daley's Blues
TTITLE3=Luther Allison - Cat Blues
TTITLE4=Lightnin' Hopkins - War Is Strating Again
TTITLE5=Paul Lamb and The Blues Burglers - Tired Of Tryin'
TTITLE6=Screamin' Jay Hawkins - The Whammy
TTITLE7=Magic Slim - Ship Made Of Paper
TTITLE8=Billy Boy Arnold and Tony McPhee - Don't Stay Out All Night
TTITLE9=Byther Smith - Come On In This House
TTITLE10=Ike Turner - Prancin'
EXTD=
EXTT0=
EXTT1=
EXTT2=
EXTT3=
EXTT4=
EXTT5=
EXTT6=
EXTT7=
EXTT8=
EXTT9=
EXTT10=
PLAYORDER=
